<svg xmlns="http://www.w3.org/2000/svg" xmlns:xlink="http://www.w3.org/1999/xlink" width="500" zoomAndPan="magnify" viewBox="0 0 375 374.999991" height="500" preserveAspectRatio="xMidYMid meet" version="1.0"><defs><g/><clipPath id="f601b0a637"><path d="M 229 193 L 314 193 L 314 323.921875 L 229 323.921875 Z M 229 193 " clip-rule="nonzero"/></clipPath><clipPath id="884ef43b1f"><path d="M 61 89 L 274 89 L 274 323.921875 L 61 323.921875 Z M 61 89 " clip-rule="nonzero"/></clipPath><clipPath id="0b4f1911e0"><rect x="0" width="31" y="0" height="21"/></clipPath></defs><rect x="-37.5" width="450" fill="#ffffff" y="-37.499999" height="449.999989" fill-opacity="1"/><rect x="-37.5" width="450" fill="#465fff" y="-37.499999" height="449.999989" fill-opacity="1"/><g clip-path="url(#f601b0a637)"><path fill="#ffffff" d="M 310.8125 291.46875 L 254.054688 193.175781 L 229.027344 236.570312 L 273.222656 313.136719 C 277.214844 320.058594 284.507812 324 292.015625 324 C 295.691406 324 299.417969 323.042969 302.824219 321.070312 C 313.261719 315.054688 316.777344 301.851562 310.8125 291.46875 Z M 310.8125 291.46875 " fill-opacity="1" fill-rule="nonzero"/></g><g clip-path="url(#884ef43b1f)"><path fill="#ffffff" d="M 270.984375 139.183594 L 246.917969 180.875 L 221.839844 224.269531 L 183.074219 291.414062 C 171.46875 311.542969 149.796875 324.054688 126.582031 324.054688 C 102.992188 324.054688 81.855469 311.859375 70.035156 291.414062 C 58.214844 271.019531 58.214844 246.582031 70.035156 226.132812 L 137.871094 108.726562 C 144.898438 96.535156 157.519531 89.238281 171.574219 89.238281 C 185.632812 89.238281 198.25 96.535156 205.332031 108.726562 L 207.78125 112.988281 L 214.808594 125.125 L 189.730469 168.523438 L 171.574219 137.105469 L 107.679688 247.804688 C 101.980469 257.65625 105.761719 266.386719 107.679688 269.691406 C 109.597656 272.992188 115.242188 280.660156 126.636719 280.660156 C 134.410156 280.660156 141.703125 276.453125 145.539062 269.691406 L 196.8125 180.875 L 221.890625 137.480469 L 233.394531 117.511719 C 239.410156 107.128906 252.667969 103.5625 263.050781 109.578125 C 273.433594 115.542969 277 128.800781 270.984375 139.183594 Z M 270.984375 139.183594 " fill-opacity="1" fill-rule="nonzero"/></g><path fill="#ffffff" d="M 260.441406 87.640625 C 272.050781 113.785156 310.757812 97.757812 300.535156 71.027344 C 288.875 44.9375 250.164062 60.964844 260.441406 87.640625 Z M 260.441406 87.640625 " fill-opacity="1" fill-rule="nonzero"/><g transform="matrix(1, 0, 0, 1, 337, 19)"><g clip-path="url(#0b4f1911e0)"><g fill="#465fff" fill-opacity="1"><g transform="translate(0.499982, 15.251436)"><g><path d="M 3.046875 0.140625 C 2.503906 0.140625 2.078125 -0.0078125 1.765625 -0.3125 C 1.460938 -0.625 1.3125 -1.082031 1.3125 -1.6875 L 1.3125 -10.734375 L 2.4375 -10.734375 L 2.4375 -1.765625 C 2.4375 -1.453125 2.5 -1.222656 2.625 -1.078125 C 2.75 -0.941406 2.9375 -0.875 3.1875 -0.875 C 3.351562 -0.875 3.515625 -0.894531 3.671875 -0.9375 L 3.765625 -0.921875 L 3.90625 -0.03125 C 3.820312 0.03125 3.703125 0.0703125 3.546875 0.09375 C 3.390625 0.125 3.222656 0.140625 3.046875 0.140625 Z M 3.046875 0.140625 "/></g></g></g><g fill="#465fff" fill-opacity="1"><g transform="translate(4.66605, 15.251436)"><g><path d="M 7.296875 -3.5625 L 2.03125 -3.5625 C 2.0625 -2.632812 2.285156 -1.953125 2.703125 -1.515625 C 3.117188 -1.085938 3.6875 -0.875 4.40625 -0.875 C 4.957031 -0.875 5.398438 -0.96875 5.734375 -1.15625 C 6.066406 -1.351562 6.328125 -1.660156 6.515625 -2.078125 L 6.65625 -2.078125 L 7.390625 -1.640625 C 7.171875 -1.085938 6.816406 -0.648438 6.328125 -0.328125 C 5.835938 -0.015625 5.195312 0.140625 4.40625 0.140625 C 3.664062 0.140625 3.03125 -0.00390625 2.5 -0.296875 C 1.96875 -0.585938 1.554688 -1.023438 1.265625 -1.609375 C 0.984375 -2.203125 0.84375 -2.941406 0.84375 -3.828125 C 0.84375 -4.691406 0.992188 -5.421875 1.296875 -6.015625 C 1.597656 -6.617188 2.007812 -7.066406 2.53125 -7.359375 C 3.0625 -7.648438 3.664062 -7.796875 4.34375 -7.796875 C 5.320312 -7.796875 6.085938 -7.519531 6.640625 -6.96875 C 7.191406 -6.414062 7.46875 -5.597656 7.46875 -4.515625 C 7.46875 -4.085938 7.457031 -3.800781 7.4375 -3.65625 Z M 6.359375 -4.515625 C 6.335938 -5.328125 6.15625 -5.914062 5.8125 -6.28125 C 5.46875 -6.65625 4.976562 -6.84375 4.34375 -6.84375 C 3.664062 -6.84375 3.132812 -6.65625 2.75 -6.28125 C 2.375 -5.914062 2.144531 -5.328125 2.0625 -4.515625 Z M 6.359375 -4.515625 "/></g></g></g><g fill="#465fff" fill-opacity="1"><g transform="translate(12.831544, 15.251436)"><g><path d="M 4.390625 0.140625 C 3.671875 0.140625 3.039062 -0.0078125 2.5 -0.3125 C 1.96875 -0.613281 1.554688 -1.0625 1.265625 -1.65625 C 0.984375 -2.257812 0.84375 -2.984375 0.84375 -3.828125 C 0.84375 -4.671875 0.984375 -5.390625 1.265625 -5.984375 C 1.554688 -6.585938 1.96875 -7.039062 2.5 -7.34375 C 3.039062 -7.644531 3.671875 -7.796875 4.390625 -7.796875 C 5.117188 -7.796875 5.75 -7.644531 6.28125 -7.34375 C 6.8125 -7.039062 7.222656 -6.585938 7.515625 -5.984375 C 7.804688 -5.390625 7.953125 -4.671875 7.953125 -3.828125 C 7.953125 -2.984375 7.804688 -2.257812 7.515625 -1.65625 C 7.222656 -1.0625 6.8125 -0.613281 6.28125 -0.3125 C 5.75 -0.0078125 5.117188 0.140625 4.390625 0.140625 Z M 4.390625 -0.875 C 5.160156 -0.875 5.742188 -1.113281 6.140625 -1.59375 C 6.546875 -2.070312 6.75 -2.816406 6.75 -3.828125 C 6.75 -4.835938 6.546875 -5.582031 6.140625 -6.0625 C 5.742188 -6.550781 5.160156 -6.796875 4.390625 -6.796875 C 3.628906 -6.796875 3.046875 -6.550781 2.640625 -6.0625 C 2.234375 -5.582031 2.03125 -4.835938 2.03125 -3.828125 C 2.03125 -2.816406 2.234375 -2.070312 2.640625 -1.59375 C 3.046875 -1.113281 3.628906 -0.875 4.390625 -0.875 Z M 4.390625 -0.875 "/></g></g></g><g fill="#465fff" fill-opacity="1"><g transform="translate(21.621947, 15.251436)"><g><path d="M 1.328125 0 L 1.328125 -7.65625 L 2.40625 -7.65625 L 2.40625 -6.453125 L 2.5625 -6.421875 C 2.8125 -6.867188 3.132812 -7.207031 3.53125 -7.4375 C 3.925781 -7.675781 4.410156 -7.796875 4.984375 -7.796875 C 5.898438 -7.796875 6.566406 -7.5625 6.984375 -7.09375 C 7.398438 -6.625 7.609375 -5.898438 7.609375 -4.921875 L 7.609375 0 L 6.46875 0 L 6.46875 -4.90625 C 6.46875 -5.363281 6.40625 -5.734375 6.28125 -6.015625 C 6.164062 -6.296875 5.984375 -6.5 5.734375 -6.625 C 5.492188 -6.75 5.171875 -6.8125 4.765625 -6.8125 C 4.078125 -6.8125 3.519531 -6.582031 3.09375 -6.125 C 2.675781 -5.675781 2.46875 -4.941406 2.46875 -3.921875 L 2.46875 0 Z M 1.328125 0 "/></g></g></g></g></g></svg>